<svg xmlns="http://www.w3.org/2000/svg">
    <symbol id="search" viewBox="0 -960 960 960">
        <path
            d="M784-120 532-372q-30 24-69 38t-83 14q-109 0-184.5-75.5T120-580q0-109 75.5-184.5T380-840q109 0 184.5 75.5T640-580q0 44-14 83t-38 69l252 252-56 56ZM380-400q75 0 127.5-52.5T560-580q0-75-52.5-127.5T380-760q-75 0-127.5 52.5T200-580q0 75 52.5 127.5T380-400Z" />
    </symbol>

    <symbol id="menu" viewBox="0 -960 960 960">
        <path d="M120-240v-80h720v80H120Zm0-200v-80h720v80H120Zm0-200v-80h720v80H120Z" />
    </symbol>


    <symbol id="logo" viewBox="0 0 480 480">
        <path
            d="
    M501.83,48.6 C461.3,50.61,453.54,51.88,432.83,59.9 C406.68,70.04,383.2,86.45,372.5,102.07 C365.85,111.77,365.48,114.43,367.1,140.25 L368.84,168 L349.13,168 C331.95,168,326.43,169.55,306.17,180.1 C293.38,186.75,275.63,198.29,266.71,205.74 C232.02,234.74,202.39,260.2,184.83,276.11 C174.75,285.25,153,302.71,136.5,314.92 C103.19,339.56,84.64,357.85,72.73,377.79 C66.21,388.71,64.57,395.69,63.55,416.99 C62.2,445.18,66.72,459.32,81.46,473.07 C93.2,484.02,121.06,495.04,141.93,496.99 C160.38,498.71,162.52,498.22,180.79,488 C191.42,482.05,209.8,469.71,221.63,460.57 L243.13,443.96 L246.06,451.67 C247.67,455.91,248.99,460.09,248.99,460.95 C248.99,461.81,253.19,468.37,258.33,475.52 C264.3,483.83,274.31,492.13,286.08,498.51 L304.49,508.5 L421.49,508.39 C567.84,508.25,599.61,505.91,627,493.22 C646.26,484.29,652.37,479.29,661.41,465 C673.17,446.41,678.4,425.97,675.24,410.89 C667.43,373.56,651.68,352.29,621.15,337.82 C599.24,327.44,602.4,327.57,450.98,330.42 C419.35,331.02,392.47,330.49,391.24,329.26 C390.01,328.03,395.02,321.28,402.37,314.26 C419.27,298.13,431.98,281.34,431.98,275.14 C431.98,267.34,435.28,267.34,460.48,275.1 C482.76,281.96,487.5,282.36,526.48,280.7 C570.34,278.83,609.65,273.17,633.54,265.28 C650.44,259.7,679.14,241.37,691.29,228.4 L700.1,218.99 L699.44,166.41 C699.07,137.49,697.61,110.77,696.19,107.04 C688.3,86.29,639.61,58.99,598.65,52.35 C562.75,46.53,551.87,46.11,501.81,48.59 M608.98,64.58 C634.62,70.46,667.15,85.81,677.48,96.89 C681.33,101.02,685.19,109.69,686.05,116.16 C687.56,127.43,686.88,128.6,670.05,143.69 C648.69,162.85,640.55,167.3,613.48,174.6 C561.8,188.54,487.63,187.08,444.31,171.27 C396.87,153.96,377.98,139.36,377.98,119.99 C377.98,109.95,380.01,105.58,389.23,95.82 C402.24,82.03,441.83,64.51,470.05,60.04 C497.18,55.75,582.7,58.53,608.98,64.56 M491.98,71.28 C491.98,77.13,580.72,158.96,587.07,158.96 C595.94,158.96,588.45,150.25,545.07,110.08 C505.66,73.59,491.98,63.59,491.98,71.28 M394.95,116.2 C389.06,125.73,406.78,145.03,433.04,157.7 C457.17,169.34,503.72,177.33,517.23,172.14 C528.41,167.85,520.25,164.96,496.95,164.96 C452.71,164.96,408.73,144.72,399.65,120.2 C398.07,115.92,396.14,114.28,394.95,116.2 M689.68,162.72 C689.52,176.33,688.51,194.84,687.43,203.84 C685.66,218.64,684.33,221.01,673.48,228.55 C627.36,260.59,598.97,268.2,524.98,268.36 C475.97,268.47,471.23,267.98,453.73,261.03 C443.42,256.93,434.98,252.39,434.98,250.93 C434.98,249.47,438.02,249.2,441.73,250.33 C457.06,254.98,487.59,257.08,493.48,253.89 C498.41,251.22,495.38,250.25,476.38,248.46 C453.07,246.27,439.35,241.35,432.08,232.6 C426.02,225.3,430.31,223.96,441.37,229.68 C452.47,235.42,494.88,237.64,494.72,232.48 C494.67,230.83,492.34,229.77,489.55,230.13 C471.39,232.46,419.98,214.49,419.98,205.81 C419.98,202.17,423.29,202.78,437.23,208.96 C449.21,214.27,460.35,216.74,473.67,217.05 C498.09,217.6,502.2,211.48,479.38,208.55 C454.03,205.3,443.14,201.75,409.91,185.92 C380.21,171.77,378.55,170.49,376.62,160.2 C375.5,154.25,375.35,148.61,376.29,147.68 C377.22,146.75,383.97,150.27,391.27,155.52 C411.21,169.84,455.32,185.75,485.47,189.5 C517.78,193.52,579.94,190.87,609.38,184.23 C637.98,177.77,655.29,168.77,671.85,151.74 C679.21,144.18,686.29,137.99,687.6,137.99 C688.91,137.99,689.84,149.13,689.68,162.74 M670.46,194.81 C670.47,210.68,671.48,217.65,673.48,215.67 C677.4,211.79,677.38,173.37,673.46,172.02 C671.6,171.38,670.45,180.13,670.46,194.81 M383.27,185.66 C399.03,193.74,406.2,202.4,416.9,226.29 C427.12,249.09,427.02,256.01,416.21,277.5 C406.68,296.43,388.83,315.97,363.69,334.95 C350.92,344.59,329.42,361.6,315.91,372.74 C302.4,383.88,290.82,393,290.17,393 C286.7,393,200.98,286.35,200.98,282.04 C200.98,280.75,204.46,277.41,208.7,274.63 C212.95,271.85,228.28,259.2,242.77,246.53 C277.65,216.03,308.7,192.1,324.57,183.49 C335.39,177.61,340.28,176.76,354.77,178.2 C364.28,179.14,377.1,182.5,383.27,185.67 M337.48,198.69 C330.88,202.06,320.08,208.99,313.48,214.1 C291.78,230.9,227.7,288.72,229.16,290.18 C230.71,291.73,275.87,254.9,295.48,236.1 C305.8,226.2,326.53,211.27,346.81,199.1 C357.27,192.83,349.62,192.49,337.48,198.69 M390.59,244.55 C386.4,253.18,378.92,261.63,370.01,267.8 C362.31,273.13,341.04,290.32,322.75,306 C304.45,321.68,285.54,337.35,280.73,340.83 L271.98,347.16 L278.72,358.06 C284.35,367.16,286.38,368.47,291.06,365.96 C296.08,363.27,309.8,352.24,374.32,299.02 C384.67,290.48,395.75,279.38,398.94,274.35 C406.66,262.16,409.91,241.41,405.01,235.51 C399.4,228.75,397.79,229.76,390.61,244.55 M198.22,294.41 C201.31,300.19,199.8,302.48,183.06,317.39 C164.66,333.78,164.49,334.09,166.36,346.62 C168.09,358.18,167.34,360.26,157.81,370.37 C146.13,382.76,133.5,384.38,133.5,373.49 C133.5,365.09,128.64,365.97,112.57,377.3 C103.84,383.45,96.58,391.73,93.1,399.5 C88.2,410.44,88.01,413.4,91.44,424.81 C102.25,460.72,136.73,477.93,166.97,462.51 C176.68,457.56,217.61,426.55,258.35,393.29 L267.16,386.09 L274.61,393.09 L282.06,400.09 L273.78,408.75 C256.89,426.41,190.59,473.6,166.62,485.03 C157.67,489.3,153.4,489.56,138.36,486.76 C111.28,481.72,88.03,469.51,79.35,455.75 C73.33,446.22,71.99,440.23,71.99,422.92 C71.99,396.67,77.23,385.71,101.02,362.24 C118.77,344.73,188.71,288.05,192.63,288 C193.81,287.99,196.32,290.86,198.21,294.39 M613.85,347.93 C640.21,359.37,659.45,384.2,664.33,413.06 C666.97,428.69,657.28,454.66,643.51,468.83 C627.36,485.46,606.33,491.7,555.36,495 C531.22,496.56,501.11,497.87,488.43,497.9 C465.86,497.96,465.24,497.76,458.49,488.27 C452.31,479.6,451.31,473.44,448.87,429.49 C446.19,381.08,448.81,350.89,456.08,346.39 C457.56,345.47,483.33,344.12,513.34,343.37 C543.35,342.63,568.68,341.24,569.63,340.3 C572.54,337.39,600.79,342.25,613.84,347.91 M437.8,357.54 C436.3,362.77,434.04,367.99,432.77,369.14 C428.9,372.66,350.97,375.72,350.97,372.35 C350.97,370.7,356.78,364.59,363.89,358.77 C376.52,348.42,377.48,348.16,406.64,347.32 C423.05,346.84,437.39,346.81,438.5,347.24 C439.62,347.68,439.3,352.31,437.8,357.54 M551.97,357.79 C551.14,358.59,540.34,360.07,527.97,361.08 C475.19,365.37,460.39,368.38,465.74,373.73 C466.89,374.88,490.48,374.08,518.15,371.93 C565.33,368.28,601.63,368.89,617.21,373.61 C622.11,375.09,623.96,374.42,623.96,371.16 C623.96,368.37,619.12,365.46,611.21,363.48 C596.18,359.72,554.12,355.68,551.96,357.79 M281.96,439.23 C281.96,450.93,292.63,465.57,306.32,472.64 C314.85,477.05,353.72,476.96,417.67,472.37 L437.87,470.92 L442.49,481.97 C445.71,489.67,446.15,493.97,443.96,496.16 C441.99,498.13,420.46,499.25,386.14,499.16 C342.57,499.04,327.51,497.89,311.96,493.51 C284.49,485.77,277.02,481.43,268.18,468.07 C259.76,455.34,260.15,449.61,270.3,436.7 C278.54,426.22,281.96,426.96,281.96,439.22 M586.46,442.65 C557.23,445.65,537.8,445.91,508.89,443.7 C464.91,440.33,461.96,441.31,461.96,459.18 C461.96,470.04,462.57,470.79,472.92,472.73 C487.21,475.41,589.36,471.49,602.96,467.73 C616.52,463.99,637.15,449.63,638.42,443.06 C639.57,437.08,640.72,437.08,586.46,442.65
  "></path>
    </symbol>

    <symbol id="logo2" viewBox="-31.6563 -15.1478 63.88 46.34">
        <path
            d="M12.295-14.9026C8.245-14.7026 7.465-14.5726 5.395-13.7726 2.785-12.7626.435-11.1126-.635-9.5526-1.295-8.5826-1.335-8.3226-1.175-5.7326L-1.005-2.9626-2.975-2.9626C-4.695-2.9626-5.245-2.8026-7.265-1.7526-8.545-1.0826-10.325.0674-11.215.8074-14.685 3.7074-17.645 6.2574-19.405 7.8474-20.405 8.7674-22.585 10.5074-24.235 11.7274-27.565 14.1974-29.425 16.0274-30.615 18.0174-31.265 19.1074-31.425 19.8074-31.535 21.9374-31.665 24.7574-31.215 26.1674-29.735 27.5474-28.565 28.6374-25.775 29.7374-23.695 29.9374-21.845 30.1074-21.635 30.0574-19.805 29.0374-18.745 28.4474-16.905 27.2074-15.725 26.2974L-13.575 24.6374-13.275 25.4074C-13.115 25.8274-12.985 26.2474-12.985 26.3274-12.985 26.4174-12.565 27.0774-12.055 27.7874-11.455 28.6174-10.455 29.4474-9.275 30.0874L-7.435 31.0874 4.265 31.0774C18.895 31.0674 22.075 30.8274 24.815 29.5574 26.745 28.6674 27.355 28.1674 28.255 26.7374 29.435 24.8774 29.955 22.8374 29.635 21.3274 28.855 17.5974 27.285 15.4674 24.225 14.0174 22.035 12.9774 22.355 12.9974 7.215 13.2774 4.055 13.3374 1.365 13.2874 1.235 13.1674 1.115 13.0374 1.615 12.3674 2.355 11.6674 4.045 10.0474 5.315 8.3674 5.315 7.7474 5.315 6.9674 5.645 6.9674 8.165 7.7474 10.395 8.4374 10.865 8.4774 14.765 8.3074 19.145 8.1174 23.075 7.5574 25.465 6.7674 27.155 6.2074 30.025 4.3774 31.245 3.0774L32.125 2.1374 32.055-3.1226C32.025-6.0126 31.875-8.6826 31.735-9.0626 30.945-11.1326 26.075-13.8626 21.975-14.5226 18.395-15.1126 17.305-15.1526 12.295-14.9026M23.015-13.3026C25.575-12.7126 28.825-11.1826 29.865-10.0726 30.245-9.6626 30.635-8.7926 30.715-8.1426 30.875-7.0226 30.805-6.9026 29.115-5.3926 26.985-3.4826 26.165-3.0326 23.465-2.3026 18.295-.9126 10.875-1.0526 6.545-2.6326 1.805-4.3626-.085-5.8226-.085-7.7626-.085-8.7626.115-9.2026 1.035-10.1826 2.335-11.5626 6.295-13.3126 9.125-13.7626 11.835-14.1826 20.385-13.9126 23.015-13.3026M11.315-12.6326C11.315-12.0526 20.185-3.8626 20.825-3.8626 21.705-3.8626 20.965-4.7326 16.625-8.7526 12.685-12.4026 11.315-13.4026 11.315-12.6326M1.605-8.1426C1.025-7.1926 2.795-5.2626 5.415-3.9926 7.835-2.8326 12.485-2.0326 13.835-2.5526 14.955-2.9826 14.145-3.2626 11.805-3.2626 7.385-3.2626 2.985-5.2926 2.075-7.7426 1.925-8.1726 1.725-8.3326 1.605-8.1426M31.085-3.4926C31.065-2.1326 30.965-.2826 30.855.6174 30.685 2.0974 30.545 2.3374 29.465 3.0974 24.855 6.2974 22.015 7.0574 14.615 7.0774 9.715 7.0874 9.235 7.0374 7.485 6.3374 6.455 5.9274 5.615 5.4774 5.615 5.3274 5.615 5.1874 5.915 5.1574 6.285 5.2674 7.825 5.7374 10.875 5.9474 11.465 5.6274 11.955 5.3574 11.655 5.2674 9.755 5.0874 7.425 4.8674 6.055 4.3674 5.325 3.4974 4.715 2.7674 5.145 2.6374 6.255 3.2074 7.365 3.7774 11.605 3.9974 11.585 3.4874 11.585 3.3174 11.345 3.2174 11.075 3.2474 9.255 3.4874 4.115 1.6874 4.115.8174 4.115.4574 4.445.5174 5.835 1.1374 7.035 1.6674 8.155 1.9074 9.485 1.9474 11.925 1.9974 12.335 1.3874 10.055 1.0974 7.515.7674 6.425.4174 3.105-1.1726.135-2.5826-.025-2.7126-.225-3.7426-.335-4.3326-.345-4.9026-.255-4.9926-.165-5.0826.515-4.7326 1.245-4.2126 3.235-2.7826 7.645-1.1826 10.665-.8126 13.895-.4126 20.105-.6726 23.055-1.3426 25.915-1.9826 27.645-2.8826 29.305-4.5926 30.035-5.3426 30.745-5.9626 30.875-5.9626 31.005-5.9626 31.095-4.8526 31.085-3.4926M29.165-.2826C29.165 1.3074 29.265 2.0074 29.465 1.8074 29.855 1.4174 29.855-2.4226 29.465-2.5626 29.275-2.6226 29.165-1.7526 29.165-.2826M.445-1.1926C2.015-.3926 2.735.4774 3.805 2.8674 4.825 5.1474 4.815 5.8374 3.735 7.9874 2.785 9.8774.995 11.8374-1.515 13.7274-2.795 14.6974-4.945 16.3974-6.295 17.5074-7.645 18.6274-8.805 19.5374-8.865 19.5374-9.215 19.5374-17.785 8.8774-17.785 8.4374-17.785 8.3174-17.435 7.9774-17.015 7.6974-16.595 7.4274-15.055 6.1574-13.605 4.8874-10.125 1.8374-7.015-.5526-5.425-1.4126-4.345-2.0026-3.855-2.0826-2.405-1.9426-1.455-1.8526-.175-1.5126.445-1.1926M-4.135.1074C-4.795.4474-5.875 1.1374-6.535 1.6474-8.705 3.3274-15.115 9.1074-14.965 9.2574-14.815 9.4074-10.295 5.7274-8.335 3.8474-7.305 2.8574-5.235 1.3674-3.205.1474-2.155-.4826-2.925-.5126-4.135.1074M1.175 4.6974C.755 5.5574.005 6.3974-.885 7.0174-1.655 7.5474-3.785 9.2674-5.605 10.8374-7.445 12.4074-9.335 13.9774-9.815 14.3174L-10.685 14.9574-10.015 16.0474C-9.445 16.9574-9.245 17.0874-8.775 16.8374-8.275 16.5674-6.905 15.4574-.455 10.1374.585 9.2874 1.695 8.1774 2.005 7.6774 2.785 6.4574 3.105 4.3774 2.615 3.7874 2.055 3.1174 1.895 3.2174 1.175 4.6974M-18.065 9.6774C-17.755 10.2574-17.905 10.4874-19.575 11.9774-21.415 13.6174-21.435 13.6474-21.245 14.8974-21.075 16.0574-21.155 16.2674-22.105 17.2774-23.275 18.5174-24.535 18.6774-24.535 17.5874-24.535 16.7474-25.025 16.8374-26.625 17.9674-27.505 18.5774-28.225 19.4074-28.575 20.1874-29.065 21.2774-29.085 21.5774-28.745 22.7174-27.655 26.3074-24.215 28.0274-21.185 26.4874-20.215 25.9974-16.125 22.8974-12.045 19.5674L-11.165 18.8474-10.425 19.5474-9.675 20.2474-10.505 21.1174C-12.195 22.8774-18.825 27.5974-21.225 28.7374-22.115 29.1674-22.545 29.1974-24.045 28.9174-26.755 28.4074-29.085 27.1874-29.955 25.8174-30.555 24.8574-30.685 24.2574-30.685 22.5274-30.685 19.9074-30.165 18.8074-27.785 16.4574-26.005 14.7074-19.015 9.0474-18.625 9.0374-18.505 9.0374-18.255 9.3274-18.065 9.6774M23.505 15.0274C26.135 16.1774 28.065 18.6574 28.545 21.5474 28.815 23.1074 27.845 25.7074 26.465 27.1174 24.855 28.7874 22.745 29.4074 17.655 29.7374 15.235 29.8974 12.225 30.0274 10.955 30.0274 8.705 30.0374 8.635 30.0174 7.965 29.0674 7.345 28.1974 7.245 27.5774 7.005 23.1874 6.735 18.3474 6.995 15.3274 7.725 14.8774 7.875 14.7874 10.445 14.6474 13.445 14.5774 16.455 14.4974 18.985 14.3574 19.075 14.2674 19.365 13.9774 22.195 14.4674 23.495 15.0274M5.895 15.9874C5.745 16.5174 5.515 17.0374 5.395 17.1474 5.005 17.5074-2.785 17.8074-2.785 17.4774-2.785 17.3074-2.205 16.6974-1.495 16.1174-.235 15.0774-.135 15.0574 2.775 14.9674 4.425 14.9174 5.855 14.9174 5.965 14.9574 6.075 15.0074 6.045 15.4674 5.895 15.9874M17.315 16.0174C17.225 16.0974 16.145 16.2474 14.915 16.3474 9.635 16.7774 8.155 17.0774 8.685 17.6074 8.805 17.7274 11.165 17.6474 13.925 17.4274 18.645 17.0674 22.275 17.1274 23.835 17.5974 24.325 17.7474 24.515 17.6774 24.515 17.3574 24.515 17.0774 24.025 16.7874 23.235 16.5874 21.735 16.2074 17.525 15.8074 17.315 16.0174M-9.685 24.1574C-9.685 25.3274-8.625 26.7974-7.255 27.4974-6.395 27.9474-2.515 27.9374 3.885 27.4774L5.905 27.3274 6.365 28.4374C6.685 29.2074 6.725 29.6374 6.515 29.8574 6.315 30.0474 4.165 30.1674.725 30.1574-3.625 30.1374-5.135 30.0274-6.685 29.5874-9.435 28.8174-10.185 28.3774-11.065 27.0474-11.905 25.7674-11.875 25.1974-10.855 23.9074-10.035 22.8574-9.685 22.9374-9.685 24.1574M20.765 24.4974C17.835 24.7974 15.895 24.8274 13.005 24.6074 8.605 24.2674 8.315 24.3674 8.315 26.1574 8.315 27.2374 8.375 27.3174 9.405 27.5074 10.835 27.7774 21.055 27.3874 22.415 27.0074 23.765 26.6374 25.825 25.1974 25.955 24.5474 26.075 23.9474 26.185 23.9474 20.765 24.4974"
             />
    </symbol>

    <symbol id="dark" viewBox="0 -960 960 960">
        <path
            d="M480-120q-150 0-255-105T120-480q0-150 105-255t255-105q14 0 27.5 1t26.5 3q-41 29-65.5 75.5T444-660q0 90 63 153t153 63q55 0 101-24.5t75-65.5q2 13 3 26.5t1 27.5q0 150-105 255T480-120Zm0-80q88 0 158-48.5T740-375q-20 5-40 8t-40 3q-123 0-209.5-86.5T364-660q0-20 3-40t8-40q-78 32-126.5 102T200-480q0 116 82 198t198 82Zm-10-270Z" />
    </symbol>

    <symbol id="light" viewBox="0 -960 960 960">
        <path
            d="M480-360q50 0 85-35t35-85q0-50-35-85t-85-35q-50 0-85 35t-35 85q0 50 35 85t85 35Zm0 80q-83 0-141.5-58.5T280-480q0-83 58.5-141.5T480-680q83 0 141.5 58.5T680-480q0 83-58.5 141.5T480-280ZM200-440H40v-80h160v80Zm720 0H760v-80h160v80ZM440-760v-160h80v160h-80Zm0 720v-160h80v160h-80ZM256-650l-101-97 57-59 96 100-52 56Zm492 496-97-101 53-55 101 97-57 59Zm-98-550 97-101 59 57-100 96-56-52ZM154-212l101-97 55 53-97 101-59-57Zm326-268Z" />
    </symbol>


    <symbol id="chevron" viewBox="0 -960 960 960">
        <path d="M504-480 320-664l56-56 240 240-240 240-56-56 184-184Z" />
    </symbol>

</svg>